/* XPM */
static char *dcd76523ab0e4c5fbcc658f0080117243fy8KOEVD8T4RVUB[] = {
/* columns rows colors chars-per-pixel */
"64 64 46 1 ",
"  c #015726",
". c #075826",
"X c #115A26",
"o c #165B26",
"O c #1E5E27",
"+ c #215F27",
"@ c #487529",
"# c #4E7A2A",
"$ c #5B8129",
"% c #638B2C",
"& c #658F2D",
"* c #6F9F2F",
"= c #709F2F",
"- c #6B9630",
"; c #6F9F30",
": c #719F32",
"> c #70A02F",
", c #72A331",
"< c #73A531",
"1 c #74A532",
"2 c #74A334",
"3 c #75A535",
"4 c #77A933",
"5 c #77A835",
"6 c #78AB34",
"7 c #79AC34",
"8 c #7CAF36",
"9 c #7CAE38",
"0 c #7EB337",
"q c #7FB239",
"w c #7FB438",
"e c #81B639",
"r c #82B83A",
"t c #84BB3B",
"y c #85BC3B",
"u c #85BB3C",
"i c #86BE3C",
"p c #88BF3D",
"a c #87C03C",
"s c #8AC23E",
"d c #8BC43E",
"f c #8DC63F",
"g c #FFEA13",
"h c #8DC740",
"j c #8EC840",
"k c white",
/* pixels */
"jjjjjjjjf6*7,4*****;eddddddddddssdjjjjjjjjjedjjjjjjjjjjjjjjjjjjj",
"jjjjjjjjji,7ste7ryyyisiiiiiiisi6<7sjjjjjjjj1dyydhjjyjjjhhjhesjjj",
"jjjjjjjjjhy748stidssddiyyiiyye77,>rjjjjjjd74eyyrdd40ewdspiy,4djj",
"jjjjjjjjjjjjs74ese848i0w7**,<<0rrrfjjjjjj8<4jjjjy4re**rsi*s,*0fj",
"jjjjjjkkkjjjjhiiy<7wwrie8w*****rjjjjjjjjyyyyjjy87dje**is0*i4*7sf",
"jjjjjjkkkjjjjjjjfr4,4*7erseir1efjjjjjjjjjjy7yey8djjf1*sf**t8*ttq",
"jjjjjjkkkjjjjjjjfyeewrsitse77sjjjjjjjjfefjjdydyyjjjjy7ss**ee*dr0",
"jjjkkkgggkkkjjjjr,4e0rsse70idjkkkjjjjj0*wjjjjjjjjjjjhyse7*weefis",
"hjjkkkgggkkkjjjje=7djjjdddjjjjkkkjjjjd1,rjjjjjjjjjjjjhi*r*w8ss0i",
"0fjkkkgggkkkjjjjfesjjjjjjjjjjjkkkjjjjs<4sjjjjjjjjjjjjjf677w0ds0i",
"*6fjjjkkkjjjjjjjjjjjjjjjjjjkkkgggkkkjs,8ysjjjjjjjjjjjjjs4wrrsfsh",
"*7rjjjkkkjjjjjjjjjjjjjjjjjjkkkgggkkkjt*eetjjjjjjkkkjjjjjt0yysshj",
"7i1fjjkkkjjj   jjj   jjjjjjkkkgggkkkjt*eeejjjjjjkkkjjjjjhidys0sh",
",f*sjjjjjjjj   jjj   jjjjjjjjjkkkjjjji=ee7jjjjjjkkkjjjjjjjdys7ti",
"7s8yjjjjjjjj   jjj   jjjjjjjjjkkkjjjjh1ee1djjkkkgggkkkjjjjhss4ey",
"fs8ehjjjjjjjrrr   jjjjjjjjjjjjkkkjjjjje8t*sjjkkkgggkkkjjjjjjjtrf",
"jde7fjjjjjjjj6e   jjjjjjjjjjjjjjjjjjjje8teyhjkkkgggkkkjjjjjjjjfj",
"jhiehjjjjjjjj77+  jjjjjjjjjjjjjjjjjjjd71yi70fjjjkkkjjjjjiiedjjjj",
"jjjhjjjjjjjjjj:   jjjjjjjjjjjjjjjjjjjs77sd1=ejjjkkkjjjjjteejjjjj",
"jjjjjjjjjjjjjjr   jjjjjjjjjjjjjjjjjjjfttfhy8sjjjkkkjjjjjje7jjjjj",
"jjjjjjjrsjjjjjj   jjjjjffsjjjjjjjjjjjjffjjjfjjjjjjjjjjjjjjjjjjjj",
"jjjjjjf*8fjjjjjjjjjjjjhif4dj   jjj   jjjjjjjjjjjjjjjjjjjjjjjjjjj",
"jjjjjjs,<fjjjjjjjjjjjjtsf,ij   jjj   jjjjjjjjjjjjjjjjjjjjjjjjjjj",
"jjjjjji7*yjjjjjjjjjjjd7pf<ij   jjj   jjjjjjjjjj   jjj   jjjjjjjj",
"jjjjjdrr*tjjjjjjjjjjji,dh,yjjj7X  jjjjjjjjjjjjj   jjj   jjjjjkkk",
"jjjjjis77tjjjjjjjjjjjr*sf*ejjs5o  jjjjjjjjjjjjj   jjj   jjjjjkkk",
"jjjjjis,wsjjjjjjjjjjje*df*rjj2q   jjjjjjjjjyjjjj-6   jjjjjjjjkkk",
"kkkjhii*tsjjjjjjjjjjje<fd*wjjj   jjjifjjjp6rjjjje:   jjjjjkkkggg",
"kkkjispwifjjjjjjjjjjjr1fs<rjjj   jjssfjfsiefjjjjj:#  jjjjjkkkggg",
"kkkhwyi7shjj   jjj   swds<tjjj   ifjfssdeitijjjjjp3   jjjjkkkggg",
"jjjs7isesfjj   jjj   jsss7rjjjjjysjjttsys8*7jjjjjfu   jjjjjjjkkk",
"jjjftdswfyhj   jjj   jfdi70jjjjjjjfesiti8**0hyyjjjj   jjjjjjjkkk",
"jjjjfhffs0sjj39   jjjjssiitjjjjjseet0sste8is0eeejjjjjjjjjjjjjkkk",
"jjjjjjjhsihjjq2   jjjjesirdjjjji0iw7ffyeissdrt0p8jjjjjjjjjjjjjjj",
"jjjjjjjjjjjjjj7@  jjjjisssjjjjjets,ffft1sffdj8yr7yjjjjjjjjjjjjjj",
"jjjjjjjjjjjjjjje7   jjhfhjjjjjjfs<ssys1tffyjjde<>dejddjfeihjjjjj",
"jjjjjjjjjjjjjjjjeO  jjjjjjjjjjjjjfr,0sshssjjjjj74r4deeje*,ehjjjj",
"jjjjjjjjjjjjjjjjs.  jjjjjjjjjjjjjy,,tfsidsjjjjjje0y7jjjr6r7fjjjj",
"jjjjjjjkkkjjjjjjjjjjjjjjjjjjjjjjjfrifftsdjjjjjjjjdjdjjjiisqfdjjj",
"jjjjjjjkkkjjjjjjjjjjjjjj4jjjjkkkjjjji7dhjjj   jjj   jjjhtiidpjjj",
"jjjjjjjkkkjjjjjjjjjjjjjjjjjjjkkkjjjjjjjjjjj   jjj   jjjjsssfyjjj",
"jjjjkkkgggkkkjjjjjjfiyfjjjjjjkkkjjjjjjjjjjj   jjj   jjjjdrff0jjj",
"jjjjkkkgggkkkjjjjjfes0ijjjkkkgggkkkjjjjjjjjjrr   jjjjjjjdrif4hjj",
"jjjjkkkgggkkkjjjjjssitrjjjkkkgggkkkjjjjjjjjj66   jjjjjjjji0f0ijj",
"jjjjjjjkkkjjjjjjjjqw4sijjjkkkgggkkkjjjjjjjjjuu   jjjjjjjjr0iiejj",
"jjjjjjjkkkjjjjjjjj7*rssjjjjjjkkkjjjjjjjjjjjjj   jjjjjjjjjt0i0sfj",
"jjjjjjjkkkjjjjjjjj77i0djjjjjjkkkjjjjjjjjjjjjj   jjjjjjjjfs0t6fjj",
"jjjjjjjjjjjjjjjjjjti7efjjjjjjkkkjjjjjjjjjjjjj   jjjjjjjjfitidjjj",
"jjjjjjjjjjjjjjjjjjh07rjjjjjjjjjjjjjjjjfefjjjjjjjjjjjjjjjjffjjjjj",
"jjfifjjjjjjjjjjjjjje*ijjjjjjjjjjjjjjjf5*tjjjjjjjjjjjjjjjjjjjjjjj",
"jjeiidjjjjjjjjjjjjjfefjjjjjjjjjjjjjjd1e7ijjjjjjjjjjjjjjjjjjjjjjj",
"jjttdsjjjjj   jjj   jjjjjjjjjjjjjhis1w70hjjjjjjjfihjjjjjjjjjjjjj",
"jjs,dsjjjjj   jjj   jjjjjjjjjjjjhr41r<ehjjjjjjjdswsjjjjjjjjjjjjj",
"jjy*sshjjjj   jjj   jjjjjjjjjjjf011e7ihjjjjjjjjdreyjjj   jjj   j",
"jje*iidjjjji%9   jjjjjjjjjjjjjf0,eitiedjjjjjjjjd0sidjj   jjj   j",
"jft*itdjjjjj::   jjjjjjjjjjjjf7ysyt7*1djjjjjjjjd0siijj   jjj   j",
"jf1werdjjjjjss   jjjjjjjjjjjh0rryeeysijjjjjjjjjd0iisjjjse   jjjj",
"jd,w80djjjjjjj$   jjjjjjjjjji4eeissdsjjjjjjjjjjd4wiwfjju&   jjjj",
"jf,*iefrqfjjjj9   jjjjjjjjjjwweese0sjjjjjjjjjjjd7w,0fjjj%   jjjj",
"jjr7ysr**5sjjjj   jjjjjjjjjjf00isshjjjjjjjjjjjjjsr<tjjjj;   jjjj",
"jjd0tsree87etfsjjjjjjjjjjjjjjjjjjjjjjjjjjjjjjjjjjfafjjjjj   jjjj",
"jjjs7<,eessssirw770yhjjjjjjjjjjjjjjjjjjjjjjjjjjjjjjjjjjjj   jjjj",
"jjjji50ew77wtytisssqijjjjjjjjjjjjjjjjjjjjjjjjjjjjjjjjjjjjjjjjjjj",
"jjjjhshjjsr00eq770eqijjjjjjjjjjjjjjjjjjjjjjjjjjjjjjjjjjjjjjjjjjj"
};
