/* XPM */
static char *_1860411672e4a74cfb35ade9db3efcaLTd3oQyA2o7QojaH[] = {
/* columns rows colors chars-per-pixel */
"64 64 150 2 ",
"   c #343A2B",
".  c #015726",
"X  c #3D4434",
"o  c #246127",
"O  c #3B6F29",
"+  c #425729",
"@  c #465C2C",
"#  c #444C3B",
"$  c #4E6D28",
"%  c #506F27",
"&  c #437529",
"*  c #517227",
"=  c #567A26",
"-  c #547C2C",
";  c #5A7E2A",
":  c #5C7D32",
">  c #607C3E",
",  c #4B5340",
"<  c #515946",
"1  c #565E4A",
"2  c #57604B",
"3  c #5A634D",
"4  c #5D6651",
"5  c #627746",
"6  c #637C45",
"7  c #667B4B",
"8  c #687B4F",
"9  c #606953",
"0  c #677457",
"q  c #687555",
"w  c #6A7C54",
"e  c #5D8427",
"r  c #56842B",
"t  c #5C862A",
"y  c #5F8829",
"u  c #5F8037",
"i  c #618A2A",
"p  c #66912C",
"a  c #69962E",
"s  c #6C992F",
"d  c #618731",
"f  c #618830",
"g  c #63823B",
"h  c #698E3A",
"j  c #6B9733",
"k  c #6E9B32",
"l  c #6D943C",
"z  c #709E31",
"x  c #729C3C",
"c  c #74A433",
"v  c #77A834",
"b  c #7AAC36",
"n  c #76A23C",
"m  c #7BAC3B",
"M  c #7DB037",
"N  c #7EB338",
"B  c #668243",
"V  c #688743",
"C  c #6C8C45",
"Z  c #678048",
"A  c #6B834D",
"S  c #6E894C",
"D  c #708E4C",
"F  c #6F9343",
"G  c #719345",
"H  c #759D44",
"J  c #73944B",
"K  c #769A49",
"L  c #799D4B",
"P  c #6D8352",
"I  c #6F8853",
"U  c #728B53",
"Y  c #72835C",
"T  c #758A5B",
"R  c #759550",
"E  c #7F9F57",
"W  c #779158",
"Q  c #7C9B59",
"!  c #76A040",
"~  c #7AA544",
"^  c #7DAB43",
"/  c #7BA34B",
"(  c #7FA94B",
")  c #778563",
"_  c #7B8D64",
"`  c #7F8F6A",
"'  c #81B639",
"]  c #85BB3B",
"[  c #88BF3D",
"{  c #8BC43E",
"}  c #FFEA13",
"|  c #81AD4B",
" . c #83B444",
".. c #86BA42",
"X. c #89BE44",
"o. c #84B34A",
"O. c #8ABC4B",
"+. c #81A557",
"@. c #85AB55",
"#. c #83A45C",
"$. c #87AE5A",
"%. c #87B057",
"&. c #8FBE55",
"*. c #8DB55E",
"=. c #8FBA5A",
"-. c #91BE5B",
";. c #829A65",
":. c #82916D",
">. c #839869",
",. c #859470",
"<. c #889676",
"1. c #8A9D72",
"2. c #88A664",
"3. c #88A961",
"4. c #8AA06D",
"5. c #8EAC6B",
"6. c #8FB264",
"7. c #93BC63",
"8. c #93B36D",
"9. c #96BB6C",
"0. c #8DA372",
"q. c #91A775",
"w. c #92AC73",
"e. c #92A579",
"r. c #95AA79",
"t. c #99AD7F",
"y. c #9CBF73",
"u. c #9AB47A",
"i. c #8DC740",
"p. c #8DC545",
"a. c #8FC744",
"s. c #8EC840",
"d. c #8DC149",
"f. c #8EC449",
"g. c #8FC44D",
"h. c #90C747",
"j. c #90C74A",
"k. c #91C54D",
"l. c #8FC151",
"z. c #92C551",
"x. c #92C259",
"c. c #93C25C",
"v. c #99C16A",
"b. c #A1C17C",
"n. c #9CAF80",
"m. c #9CB180",
"M. c #A0B584",
"N. c #A5B78D",
"B. c #ABBD94",
"V. c white",
/* pixels */
"s.s.s.s.s.s.s.s.s.s.s.s.s.s.s.s.s.s.s.s.s.s.s.s.s.s.s.s.s.s.s.s.s.s.s.s.s.s.s.s.{ { { i.s.s.s.s.s.s.s.s.s.s.s.s.s.s.s.s.s.s.s.s.",
"s.s.s.s.s.s.s.s.s.s.s.s.{ { ] [ s.s.s.s.{ { ' N ' ' b s.s.s.s.s.s.s.s.{ ] { { ] ] ] ' N { ] { s.s.s.s.s.s.s.s.s.{ { i.i.i.[ ' ' ",
"s.s.s.s.s.s.s.{ { { { { { ' { { { { { ] b b N ] [ b N ] { { { { s.{ { i.s.i.{ ] ' N { { i.i.i.s.s.s.s.s.s.s.s.s.] ' ] b ' ] ' ' ",
"s.s.s.s.{ ] ' { V.V.V.{ { { ] { ] { ] { { { { { { { { ] ' { i.s.{ { { ] ] ' ' { i.i.s.s.s.s.s.s.s.s.s.{ ] { { s.s.{ s.s.s.{ { [ ",
"s.{ ] v z ] i.{ V.V.V.{ { ] { { { ] ' [ { { { ' { { ' ] { { { { ] ] ] { { { { { { i.{ s.s.i.{ { { ' b b { ' ' N c b N N v ' ] { ",
"v b a ] i.] { s.V.V.V.N ' { { b c [ { { { ] N { { ] ] { ] ] { ] { { { ' ] { { ] { { { { { ' ' { c b { { ] ' ] ] ] { ' [ [ { ] ] ",
"M ' s.i.s.V.V.V.} } } V.V.V.N ' ] { { { ] { i.{ i.i.s.s.s.s.s.{ { ' ' { { ' ' ' M N ] ' b ] ] ' ' { { { ] { i.s.s.s.s.s.{ { { s.",
"s.s.s.{ { V.V.V.} } } V.V.V.s.s.s.j.s.s.s.s.s.s.s.s.s.s.s.{ { { N { ] ] ' ] ] ] N N V.V.V.s.s.{ { { { { s.s.s.s.i.' z c { { ] b ",
"] { v ] { V.V.V.} } } V.V.V.s.s.s.d.p.s.z.f.i.p.i.i.X.p.i.{ { { { { [ ] { ] ] ] { { V.V.V.[ ' { { { N b N { { { ] ] { { { ] ' { ",
"] { s.s.s.s.{ s.V.V.V.s.s.s.s.O.8.s.j.z.j.p.f.s.s.i.i.i.i.s.s.s.s.] { { ] { { { { ' V.V.V.N { ] { ] { i.s.. . . s.{ ' [ { { s.s.",
"s.s.s.s.{ ] s.s.V.V.V.s.s.s. .-.=...o.] i.i.i.i.i.p.....s.s.s.s.s.s.s.s.s.s.s.V.V.V.} } } V.V.V.. . . s.s.. . . c ' { s.s.s.s.s.",
"s.s.s.{ { s.s.s.V.V.V.] ' { p.p.' i.p.p.O.d.8.5.V                 s.s.s.{ ' { V.V.V.} } } V.V.V.. . . { ' . . . s.s.s.s.s.{ { { ",
"s.s.i.] { { { [ M ] ] ' i.p.o.;.l.k.=.e.r.r.q     B.B.B.B.B.B.B.  s.s.s.{ i.{ V.V.V.} } } V.V.V.. O . . . . s.{ { { { b c b ' z ",
"s.] ' ] { ] [ { p.^ ] i.&.r.u.&.=.q.q.;.,     B.B.B.B.B.B.B.B.B.  : s.s.s.{ ] { ' N V.V.V.{ v ] ] c c O . . { { { { { ] { { ' ' ",
"' v ' s.s.s.M M m ..s.c.1.+.| 8.1.Y 3     B.B.B.B.B.B.B.B.B.B.B.B.@ s.s.s.s.s.s.s.s.V.V.V.] { ] ' s s . . . s.{ ] ' ' { ] { { { ",
"s.s.s.{ N a ' ' ..p.g.( o.6.0.Q | < , B.B.B.B.B.B.B.B.B.B.B.B.B.B.B.] s.s.s.s.s.' ] V.V.V.{ s.s.s.c s o . . { { { { { { ' ' { ] ",
"s.] ' M ] s.{  .i.p.X.X.8.+.R 2 2 <.B.B.B.B.B.B.B.B.B.B.B.B.B.B.B.B.b.j s.s.s.' ' s.s.{ s.s.s.i.{ ' z o . . i.s.i.] { ] ] { { z ",
"{ ] { s.s.s.' p.j.k.o.=.o.R | 4 N.B.B.B.B.B.B.B.B.B.B.B.B.B.B.B.B.B.,.,.  s.' ' { ' ' ] { N { { { { s.. . . { { { { b b b ] ' b ",
"s.s.s.s.s.{ ' i.p.^ %.$.o.P R X ,.,.B.B.B.B.B.B.B.B.B.B.B.,.,.,.,.,.,.8     s.s.' ] ' v ] ] ] s.{ { { ] ' ] ' { ' ] ] M ' { ' ' ",
"s.s.s.s.i.' O.p.o.h.4.o.1.Y #   ,.,.,.,.,.B.B.B.B.,.,.,.,.,.,.,.,.8 8 8 8   @ s.s.v ' ' ] ] ' ] ' { [ N ] ] { { { { [ c [ b { ] ",
"s.s.s.s.{ ..d.5.z.*.#.8.0.R < ) ,.,.,.,.,.,.,.,.,.,.,.,.,.,.,.,.,.8 8 8 8 8     s.s.s.s.{ ' c ' { { ] ] ] ' { ] N { ] ' [ { s.s.",
"s.s.i.] { l.9.x.j.;.7.u.T w 9 :.8 8 ,.,.,.,.,.,.8 8 ,.,.,.,.,.,.,.8 8 8 8 8 8 8     s.s.s.s.s.{ i.{ c ] ] { { { ] ' ] i.s.s.s.s.",
"{ { ' { z.u.9.s.m.u.7.t.0 U X ,.,.8 8 8 8 ,.,.,.,.8 8 8 ,.,.,.,.,.8 8 8 8 8 8 8 8       ' s.s.{ { ' ] ] ' b ' ] [ { { { { i.s.s.",
"b { s.z.y.9.f.q.M.7.x.q U / X ,.,.,.8 8 8 ,.,.,.,.,.8 8 8 ,.,.,.,.,.8 8 8 8 8 8 8 ,.B.B.n + $ b N ' b b ] { { ] s.s.i.s.{ s.s.s.",
"{ { s.x.v.p.-.n.7.z.,.w U I < ,.,.,.,.,.,.,.,.,.,.,.,.,.,.,.,.,.8 ,.8 8 8 8 8 ,.,.,.B.B.B.t.% + + + { s.s.s.s.s.i.{ s.{ { V.V.V.",
"z ] s.z.j.j.5.-.-.9.w w I U   ,.B.B.B.B.B.B.B.B.B.,.,.,.,.,.,.,.8 8 ,.,.,.,.,.,.B.B.B.B.B.B.N.B.B.B.  s.s.s.] s.] s.s.i.s.V.V.V.",
"' s.j.j.x.7.p.*.&.R R 3 ,   B.B.B.B.B.B.B.B.B.B.B.B.B.B.B.,.,.8 8 8 ,.B.B.B.B.B.B.B.B.B.B.B.B.B.B.B.    s.s.N { ' { s.{ b V.V.V.",
"V.V.V...' z.w.3./ L     B.B.B.B.B.B.B.B.B.B.B.B.B.B.B.B.B.,.,.8 8 8 ,.,.B.B.B.B.B.B.B.B.B.B.B.B.B.B.B.,.  s.z N s.s.V.V.V.} } } ",
"V.V.V.' O.x.r.| 1 #   B.B.B.B.B.B.B.B.B.B.B.B.B.B.B.B.B.B.,.,.8 8 8 ,.,.,.,.B.B.B.B.B.B.B.B.B.B.B.B.,.,.  s.M N s.s.V.V.V.} } } ",
"V.V.V.] O.0.w   ,.B.B.B.B.B.B.B.B.B.B.B.B.B.B.B.B.B.B.B.B.,.8 8 8 8 ,.,.,.,.,.,.,.B.B.B.B.B.B.B.B.,.,.8     s.] ] ] V.V.V.} } } ",
"b { { $.8.w ,   ,.,.B.B.B.B.B.B.B.B.B.B.B.B.B.B.B.B.B.,.,.,.8 8 8 8 ,.,.8 ,.,.,.,.,.,.B.B.B.B.B.B.,.8 8 8   s.' ' ' s.N N V.V.V.",
"{ s.O.5.U 1   ,.,.,.B.B.B.B.B.B.B.B.B.B.B.B.B.B.,.,.,.,.8 8 8 8 8 8 ,.,.,.8 ,.,.,.,.,.,.B.B.B.,.,.,.8 8 8   : ' { s.s.{ { V.V.V.",
"s.p.o.o.#   ,.,.,.,.,.,.,.B.B.B.B.B.B.B.B.B.,.,.,.8 8 8 8 8 8 8 8 ,.,.,.,.,.,.,.,.,.,.,.,.,.,.,.8 8 8 8 8 8   : N M s.s.s.V.V.V.",
"s.{ ' s.  ,.,.,.,.,.,.,.,.,.,.B.B.B.B.B.,.,.,.B.B.B.B.B.8 8 8 8 8 ,.,.,.,.,.,.,.,.,.,.,.,.,.8 8 8 8 8 8 8 8 8     ' { { s.s.s.v ",
"s.' s.    ,.,.8 8 8 8 ,.,.,.,.,.,.,.,.,.,.8 B.B.B.B.B.B.B.B.B.B.B.B.,.,.,.,.,.,.,.,.,.,.,.,.,.8 8 8 8 8 8 8 8 8     [ ' { { s.s.",
"s.] {   ,.,.,.8 8 8 8 ,.,.,.,.,.,.,.,.,.8 8 B.B.B.B.B.B.B.B.B.B.B.B.B.B.,.,.,.8 ,.,.,.,.,.,.,.,.8 8 8 8 8 8 8 8 8     s.s.] ' z ",
"s.' {   ,.,.,.8 8 8 8 ,.,.,.,.,.,.,.8 8 8 8 B.B.B.B.B.B.B.B.B.B.B.B.B.B.,.,.,.8 8 8 8 ,.,.,.,.,.8 8 8 8 8 8 8 8 8 8   s.s.s.{ M ",
"{ ] s.  ,.,.,.8 8 ,.,.,.,.,.,.8 8 8 8 8 8 8 ,.B.B.B.B.B.B.B.B.B.B.B.8 8 ,.,.,.,.8 8 ,.8 :.,.,.,.8 8 8 K o.8 8 8 8 S : s.s.' s.s.",
"{ s.s.  ,.,.,.,.,.,.,.,.,.,.2.K 8 8 8 8 S 8 ,.,.,.,.,.,.,.,.,.,.,.,.8 8 8 ,.,.,.:.` ) T w w P Y 8 A S S A 8 8 8 8 S / N ] b s.s.",
"{ s.s.    ,.,.,.,.,.>.@.I w 8 S S K 8 S K 8 8 ,.,.,.,.,.,.,.,.,.,.,.8 8 8 _ Y Y P P S 8 A U T E J 8 8 8 8 A 8 8 S Z x F x b s.s.",
"{ s.s.s.  ,.:._ W U D A 8 8 S A S 8 8 8 7 7 7 7 J / n H ^ T _ ,.2.8 8 8 S 8 P D D J A A T L J 8 8 8 8 A 8 8 8 8 7 6 8 V ^ { s.s.",
"{ s.s.{ @ U D D H J S A ~ J 7 K S 8 A 8 8 8 A 8 8 S D K A 7 S J S 8 8 8 8 S S A 8 8 8 J J 8 8 A J D 8 8 8 8 C F H J G p.s.s.{ N ",
"{ { s.' k ' m  .] .. .m ! ~ ..K A S A S D A 8 8 A S S S S 8 8 8 8 8 D L L D D S A L ~ G > 7  .K Z C 8 S Z 7 B H H C s.{ { { ] N ",
"s.{ c s.s.{ - * N ' ] m H ..H c G ; H K / S J D ~ S S S 8 8 8 Z J .. .S K H k f i M i e u u ~ 6 7 Z g 7 Z S ~ ^ C { { { N ] { s.",
"s.s.M ] { [ ' ' { ] ' ; ~ 7 k b k m j x K K ~ ' m H ~ S J G S ~ N m B 6 : e i i t y i i h h F F n ^  .p./ ~ G l { { N ] s.s.s.s.",
"s.] z s.s.s.s.s.s.s.s.{ ~ ..{ : d + N { { ] b * = t = 5 V A 6 5 7 D ~ ~ m ' ' ' { { s.s.s.s.s.s.s.s.s.{ N b { s.s.s.s.{ s.s.s.s.",
"z v { ] s.s.s.s.s.s.s.s.s.s.i.i.s.s.s.s.s.s.' c c b ' ' ..p.o...s.s.s.s.s.s.s.s.s.s.s.s.s.s.s.s.[ ' ' { i.s.i.] { [ ] ] s.s.s.s.",
"b v { { s.s.s.s.s.s.s.s.s.s.s.[ ] s.s.s.s.s.s.i.i.i.i.i.s.s.s.s.s.s.s.s.s.s.s.s.s.s.s.s.s.s.] ] { { i.i.{ b N { ] ' [ s.s.s.s.s.",
"s.s.{ { ] b { { ] ] s.s.s.s.[ { s.s.s.s.s.s.s.s.s.s.s.s.s.s.s.V.V.V.s.s.s.s.s.s.s.] ' { s.] ' { i.{ { { b { { { { s.s.s.s.s.s.s.",
"s.s.s.s.i.{ i.{ ] { s.s.s.] [ s.s.s.s.s.s.s.s.s.s.s.{ { { { { V.V.V.s.i.{ [ ' ' [ { { { s.s.s.{ ' v b { s.s.s.s.s.s.s.s.s.s.s.s.",
"s.s.s.s.i.i.{ [ { i.i.s.{ s.s.s.i.{ s.s.s.i.{ s.i.{ { { { { { V.V.V.' ] ] [ { i.{ i.{ s.s.{ ' ' { s.s.s.s.s.s.s.s.s.s.{ { ] { b ",
"s.s.s.{ i.i.{ { { { { i.s.i.i.i.{ { i.s.s.i.i.i.{ s.{ { V.V.V.} } } V.V.V.{ { ] { { s.{ ] ] s.. . . s.s.. . . { c a k ] ] ' ' b ",
"s.s.{ { { { ] { { { { { ] { { { i.s.i.{ { { s.s.s.{ { s.V.V.V.} } } V.V.V.{ { { s.s.{ { { { { . . . N ] . . . z N { { ] { { ] ' ",
"s.{ { ' { ' ] { ' { . . . s.s.s.. . . i.s.s.s.s.s.s.s.s.V.V.V.} } } V.V.V.{ s.s.s.{ { { { { i.. o . { { . . . i.i.s.s.s.s.s.s.s.",
"c ' ' ] ' { { i.s.s.. . . { { s.. . . s.s.s.s.i.i.s.s.{ { { { V.V.V.s.i.i.i.i.{ { { { { { i.i.{ M i.. . . i.i.i.{ { ' ' ' ] ' b ",
"{ s.s.s.s.s.s.s.s.s.. . . { i.s.. . . s.s.i.{ { i.i.{ { { { s.V.V.V.{ { { i.{ i.{ { { { { { { { N c . . . { { ] ] ' ' ] [ { [ { ",
"s.s.{ { { { { { { { { ' ' O . . s.s.s.i.{ { i.s.s.s.s.s.s.s.s.V.V.V.s.s.i.{ { ] ] { i.s.s.s.s.s.s.s t . . s.s.s.s.s.s.s.s.s.s.s.",
"s.s.{ ] { s.i.{ { { { c N r . . s.i.{ { s.s.s.s.s.s.s.s.i.i.s.{ i.i.{ { { { { s.s.s.s.i.{ { { { ' z s & . . N s.s.s.s.s.{ { { ] ",
"s.s.s.i.i.{ { ] { i.{ [ k - . . s.s.i.i.s.s.i.{ { { i.{ { i.{ { { { { { i.i.{ { { { { { { ] ] { M c z o . . ] ' ] ] ' { { { { i.",
"s.s.s.{ i.s.s.i.i.i.{ { v v o . . { i.s.s.{ { ' ] { { ] { { { { { { i.{ i.{ { { { { ' ' ' { { { { { i.. . . ] { { { i.s.s.s.s.s.",
"' { { ' N ] ' b M ] ' { { k O . . { i.{ { { { { { i.i.i.s.s.s.s.s.i.i.{ { { { ] ] ' { i.{ { { { { [ ' N [ ' { { { N ' s.s.s.s.s.",
"z z z ' { ] ' ] { { { i.{ b o . . s.s.s.s.s.s.s.s.s.s.i.i.s.{ s.i.i.i.{ { { { { { { { ' { { ] ' ] ' { { { { { b { { s.s.s.s.i.{ ",
"s.s.s.s.s.s.s.s.s.s.s.s.s.s.s.s.s.s.{ { ' ] ] { ] i.s.i.s.{ i.i.{ ' v ' { ] { { { { { s.{ ' b [ N ] { { ] ] { s.{ { { ] ' N ] ' ",
"s.s.s.s.s.s.s.s.{ s.{ ] ] { { [ ] ' { [ { { { { i.i.{ { { ] ] { { s.s.s.s.s.{ { ] { ' ' v p v b b ] { { { { { { { ' ] ] { { ] ' "
};
