/* XPM */
static char *_00fd976473d40fadfc02f39d7636d67zoVaulx0k7rdRKZf[] = {
/* columns rows colors chars-per-pixel */
"64 64 93 2 ",
"   c #6D012E",
".  c #6F332F",
"X  c #015726",
"o  c #135A26",
"O  c #1E5D27",
"+  c #326528",
"@  c #714730",
"#  c #745C32",
"$  c #766A33",
"%  c #787434",
"&  c #7A7D35",
"*  c #8F0909",
"=  c #91172E",
"-  c #8F392F",
";  c #BA3E25",
":  c #C12221",
">  c #E5372F",
",  c #E53631",
"<  c #8D4A30",
"1  c #8C5531",
"2  c #8A5F32",
"3  c #886933",
"4  c #867635",
"5  c #847B35",
"6  c #9B7731",
"7  c #947F33",
"8  c #987931",
"9  c #A56A2E",
"0  c #BC6E35",
"q  c #AC7A36",
"w  c #B37535",
"e  c #DC4832",
"r  c #CD5E32",
"t  c #C56534",
"y  c #CD7B51",
"u  c #E27258",
"i  c #FF6162",
"p  c #5E822D",
"a  c #61862D",
"s  c #648C2E",
"d  c #678F30",
"f  c #7B8336",
"g  c #7E8B37",
"h  c #6A9431",
"j  c #6D9A32",
"k  c #719F34",
"l  c #7E9138",
"z  c #74A533",
"x  c #77A934",
"c  c #79AC35",
"v  c #7CAE38",
"b  c #7DB237",
"n  c #7FB438",
"m  c #828436",
"M  c #8D8435",
"N  c #838A37",
"B  c #888936",
"V  c #848E3A",
"C  c #938235",
"Z  c #928837",
"A  c #8A9037",
"S  c #819439",
"D  c #889538",
"F  c #829C3A",
"G  c #A08136",
"H  c #84A43B",
"J  c #8BA43B",
"K  c #86AD3C",
"L  c #8DAA3B",
"P  c #96A939",
"I  c #82B539",
"U  c #89B53D",
"Y  c #85BC3B",
"T  c #89BD3E",
"R  c #92BF3E",
"E  c #87C03C",
"W  c #8BC33E",
"Q  c #8BC43E",
"!  c #8DC63F",
"~  c #8DC73F",
"^  c #92C03E",
"/  c #FFEA13",
"(  c #998B40",
")  c #9D9F42",
"_  c #A88745",
"`  c #B28448",
"'  c #A5AB45",
"]  c #8DC740",
"[  c #8EC840",
"{  c #FE9C92",
"}  c #FFCFC2",
"|  c #EAEAEA",
" . c white",
/* pixels */
"[ [ [ [ [ [ [ [ [ E c Y ] [ [ [ [ [ [ [ [ [ [ [ [ [ [ [ E [ [ [ [ [ [ [ [ [ [ [ [ [ [ [ [ ] ] ! ! Q Q Q E Y Y Y Y Y n b I ! [ [ ",
"[ [ [ [ [ [ ! ] ! b Y [ [ [ [ [ [ [ [ [ [ [ [ [ [ [ ! Y z E [ [ [ [ [ [ [ [ [ [ [ ! Q E E E E Y Y Y E Y z c c c c c c x n ! [ [ ",
"[ [ [ [ [ ! Y ! ! ! ! [ [ [ [ [ [ [ [ [ [ [ [ [ [ ] Y I E [ [ [ [ [ [ [ [ ] ] ] E b x z n Y Y E E E Y Y T E T Y I c b Y ! [ [ [ ",
"[ [ [ [ [ ] E ! ! Y Q [ ! [ [ [ [ [ [ [ [ [ [ [ ! Q Y E [ [ [ [ [  . . .E Y Y n b Y Y E E Y Y I Y c z z z z z z x b n ! [ [ [ [ ",
"[ [ [ [ Q E E ! Q X X X ! [ [ X X X [ [ [ [ [ ] E Y E ] ] ] ! Q !  . . .n E E Q ! E ! Y T Y Y Y Q Y E E E I z n Y Q ! ! ] ! ! ! ",
"[ [ [ ! E ! E ] Y X X X ! [ [ X X X [ [ ] [ [ I b b Q ] ! E Y Y Y  . . .Q Q Y Y ! ! Q Q ! ! ] ] ] ! Q Q E E ! ! ! ! ! ! E n Y c ",
"[ [ [ Y E E Q Y n X X X [ [ [ X X X ] ] ! ! E E ! [ Q Y T E  . . ./ / /  . . .Q ! ] ] [ ] ] ] ] ! ! ! ! ! ! ] Q Q Q E E E b z x ",
"[ [ ! E Q Y ! Y ] ] ! Q X X X [ [ Y z ! v E ] ] ! ! ! ] ] Q  . . ./ / /  . . .] [ [ [ [ ] ] ] ] ] ! ! ] ] Q E b c x Y Y n b x E ",
"[ ] E Q E ] Q ! ] Y Q ] X X X E v h I Q [ [ ] Q ! ! Q Y I Y  . . ./ / /  . . .[ ] ] ] ! ! ! E Q ! E Q E Q E Y b Y E Y E Y Y Y ] ",
"! E E Y Q ] ! ] Q E ! ] X X X p h I [ ! ! [ ] ! I Y E b Y ! ! ] ]  . . .! E E Y Y Y Y Q E E E E E E E Y E X X X Q T E X X X ! E ",
"E E b E ] ! ! ! c ] X X X z h z [ E Y Q [ [ ] b x n n c Q E Y Y E  . . .z c c Y Y c c c n I n Y Q E E E E X X X ! ! ! X X X b Y ",
"E T Q ] ! Y ! Y E [ X X X z Y E c T ! [ [ [ [ E Q Q Q Q ! ! ! ! ]  . . .E Q ! ] ] Y E Q ! ! ! [ ! Q n E T X X X ] Q Y X X X Y ! ",
"Y E ! E ! Y Q Y [ [ X X X b b n E [ [ [ [ [ [ [ [ [ [ [ [ [ [ [ [ [ [ [ [ [ [ [ [ ] [ [ [ [ [ [ [ ] ! Y c E [ ! X X X n c d ! ] ",
"E [ ] [ ! n ! ] [ [ ! E E E ! ! [ [ [ [ [ [ [ [ [ [ [ [ [ [ [ [ [ [ [ [ [ [ [ [ [ [ [ [ [ [ [ [ [ [ Q Y Y ! [ ! X X X a p s ! E ",
"[ [ [ [ ! E ] [ [ [ ] ! E ] [ [ [ [ * * * * * * * * * * * * * * * * * * * * * * * * * * * * [ [ [ ! E Y ! [ ] ! X X + h s I ! Y ",
"[ [ [ [ E Q ] [ [ ] Q E E ] [ [ [ [ * * * * * * * * * * * * * * * * * * * * * * * * * * * * [ [ ] T Y Q E E Y n X X o c n ! [ ! ",
"[ [ [ [ ! ! ! ! Q ! Y ! ] [ [ [ [ [ * * * * * * * * * * * * * * * * * * * * * * * * * * * * [ [ Q c b b x x v Q X X o Y ] [ [ [ ",
"[ [ ! ! Y ! ] Y I ] E [ [ [ [ * * * > > > { { { { { { { { { i i i i i i i i i i i i i i i i       n n b x c Q ] X X X [ ] [ [ [ ",
"! ! Y Y Q ! Q Y E E ! [ [ [ [ * * * > > > { { { { { { { { { i i i i i i i i i i i i i i i i       ! ! ! E ! ] ] ] ! ! ] E [ [ Q ",
"Y E b E ! ! ] x ! ! [ [ [ [ [ * * * > > > { { { { { { { { { i i i i i i i i i i i i i i i i       [ [ [ [ [ E Y ! n ! ] Y ! ! c ",
"c E n E ] ! ] c [ ] [ [ * * * > > > | | | | | | { { { > > > : : : : : : : : : : : > > > > > i i i       [ ! I E ! Y Q ] Y E ! x ",
"Y ! Y Q ] ! Q Y [ [ [ [ * * * > > > | | | | | | { { { > > > : : : : : : : : : : : > > > > > i i i       [ [ Q E Y b E ] Q ] ] c ",
"] [ ! [ [ ! E ! [ [ [ [ * * * > > > | | | | | | { { { > > > : : : : : : : : : : : > > > > > i i i       [ [ [ ] ! ! ] [ ! Q ! Y ",
"[ [ [ [ [ Q Y Q [ * * * > > > } } } | | | | | | i i i > > > > > > : : : : : : : : : : : > > > > > { { {       [ [ [ [ [ E ! Q E ",
"[ [ ] ! [ E Y ! [ * * * > > > } } } | | | | | | i i i > > > > > > : : : : : : : : : : : > > > > > { { {       [ [ [ ] Q Y  . . .",
"[ [ E ! ] E Q [ [ * * * > > > } } } | | | | | | i i i > > > > > > : : : : : : : : : : : > > > > > { { {       [ [ ! ] ! I  . . .",
"[ ] Y ] ] E ] [ [ * * * { { { } } } } } } } } } | | | } } } } } } i i i > > > > > i i i i i i i i { { {       [ [ ! E Q Y  . . .",
" . . .[ Q Q ] [ [ * * * { { { } } } } } } } } } | | | } } } } } } i i i > > > > > i i i i i i i i { { {       [ [ !  . . ./ / / ",
" . . .[ Y ! [ [ [ * * * { { { } } } } } } } } } | | | } } } } } } i i i > > > > > i i i i i i i i { { {       [ [ !  . . ./ / / ",
" . . .] E ! [ E [ [ [ [ * * * : : : : : : > > > > > > } } } i i i = = = = = = = = = = = = = : : :       [ [ [ [ Q !  . . ./ / / ",
"[ [ ] ] Y E E b Y [ [ [ * * * : : : : : : > > > > > > } } } i i i = = = = = = = = = = = = = : : :       [ [ ] E I ! Q ! E  . . .",
"[ ] E E n E Q c c Q [ [ * * * : : : : : : > > > > > > } } } i i i = = = = = = = = = = = = = : : :       [ ] Y z Y E ! ! !  . . .",
"[ E Y Y Y Q E Y Q Y T Q ! [ [       : : : > > > > > > { { { = = = = = = = = = = = = = , , ,       [ [ [ ] Y n b Y ] Q ! [  . . .",
"[ Y Y Y n Y ] ] ] T b Y I ! [       : : : > > > > > > { { { = = = = = = = = = = = = = , , ,       [ [ ! Y b n E E ! ! ] ] ] n z ",
"Y b Y E E ! [ [ [ [ ! E I ! [       : : : > > > > r > { { { = = = = = = = = = = = = = , , t f     [ ] Y c E E E E Q ! ! ! ! n Y ",
"Y Y Y E Y E ] ] [ Q E ] Y Q [ [ [ [     . 9 : : w r 0 i i i = 3 < = 5 1 = = = = , , e   f % F [ [ [ [ ] ! ! ] Y E Q E E ! ! E [ ",
"n c E c b T Q E Q b E [ ! Q E ! [ [     . M : M q > t u u i 4 5 3 5 2 3 - m 1 = 0 w q & f & H [ [ [ [ [ [ Q E Y ! E E Y ] ] [ [ ",
"I n E z T Y Q E Y E ! [ [ ] E Y ! [       6 6 N Z t > y ` ( 4 4 < m 5 5 m 5 5 5 Z t G # & % K [ [ [ [ [ Q Y E n E E ! E ] E Q [ ",
"c T E ! ] ! ! ! Y Y [ [ ] ] E Y ! [ [ [ T & % % M B C ) _ V 5 5 3 4 N g 3 ; M 8 & & f W F K W [ [ [ [ ! Y Y Y I ! ! Q Y ] ] [ [ ",
"c Y Y E ! E Q E Y Y ! Q Y ! E ! ! E [ [ K & & % B V N ' J S N m A S N m D C N M f $ $ W K [ [ [ [ [ [ E b E Q Q Q Y ! E [ [ [ ! ",
"b Y ] ! ! ! Q E ! Y ! ] E ] ! ! E E E [ U & f @ L S J U K V l T T K N F K H N 7 U g % ] ] ] [ [ [ [ E n Y E E ! [ [ ] [ [ [ ] Q ",
"Y ] [ [ [ Q E E E E ] ] Y ! Y E ! E Q [ U F U W W H U P K F T U T J U W U H W U T H [ [ [ [ [ [ Q Q Y Y Q ] [ [ [ ] E Q [ [ Q E ",
"E Q ! [ ! Q E Q E Q ! ! v ! Y E E E Y ! T F T W W T U H K ! U J T W W ^ U U ] T T [ [ [ [ [ ! E Q ] ! [ [ [ ! Q E Y E E [ [ E Y ",
"n n ! [ ! Y ! ! ! T ! E I ! ! ! Y E ! ! [ U W T T T K H W T H W T U W W R T ! T T [ [ [ [ ! ! ! ! [ ! ! Y Y Y ! T Y Y E ] ! E T ",
"b I ! ] Y E ! b Y E ! ] ! ! ] E Y ] ] E E ! [ ] ] U U U ! U T W T T W T T U W [ [ [ [ ! ! Q E ! ! Q b Y E Y n Q Y Y Q E ] ! Y E ",
"c I ] E c E ! b Q Q ! Q Y E [ ! ! [ ! E Y Y ! ] U K T T T H T ! F W W T K K T [ [ ] Q E Q I b E Y Q E Y x Y Y E E ! ! ! ] E E E ",
"E Y ! Y Y ! ! E ] [ [ ] ! ] [ ! ! ] E E Q Y E T K H W F H l T H U ] ] K H T [ ! ! E Y E I b I ! ! T v Y b Y E Q Q Q ! E ] E E ] ",
"I Q ! E ] ! ! E ] [ [ [ [ E E I Y ! ] [ [ ] ] ! Y I T ] T H U U W T [ [ [ [ [ ] Q b Y ! Y Y Y E E Y E Y n E ! ! Y E ! ! ! Q ! [ ",
"E ! ] E E Q ! ] [ ] ! ! Y E ! Y E Q ] [ ] ] ! Y Y n c Q U W [ [ ] [ [ [ [ [ [ [ [ ! ! ! E b Y ! Y Y Y Y Y E Q E b E ! Q ! Q ! [ ",
"Y ! ! ! ! ! ! Y Q ! ] ] ! Q ! ! ! ! ! ] E ! Y E Y E E x E [ l W ! ] [ [ [ [ [ ] ! E Q Y Y I Q ! X X X b Y Y X X X Y E ! ! Y ! [ ",
"! Q E n X X X Y ! E X X X ] ] Q E E E ] ! [ ! ! ! ! ! E Y Q [ [ [ [ [ [ ] Q E Y Y b Y Y E E ! ! X X X ! ! E X X X Y E ! ! Q ! [ ",
"b Y Y Y X X X E ] ! X X X ! Q E T Y ! ! Y  . . .Y Y E b c Q [ [ [ [ ! ! E I Y n E E E ! E ! ! ] X X X I Y ! X X X Y E ] ! E ! [ ",
"Y ! ! ] X X X E ] ! X X X Y E E E b E n Y  . . .Y E ! T Y Q [ [ ! ! E E E Q E ! ! ! Y E Y E ! v z j z X X X E E I E Q Q ! ! [ [ ",
"! ! [ I h v v + X X Y ! ! Y E E Y Y Y Y Q  . . .[ [ [ ] ! Y ! E Y E E ! E Y n Y Y Y b Q n E Q n j a z X X X T E Y E ! ! Q Y ] ] ",
"Q ! E Y a p s X X X ! ] ] Q ! Q Y Q  . . ./ / /  . . .Y ! Y ! Q ! E n Y Y b n Y ! E T E Y E ! Y ! b x X X X ! ! ! ! ] [ ] ! ! Q ",
"! Y Y Q z k h O X X ! [ ! Y Q Y Y E  . . ./ / /  . . .! Y c ! Y Q Y Y Y ! E E E E Y E Q Q ! ! Q ! Q X X X ! ] ! Q ! [ [ E I c c ",
"E E E E Y v c X X X E ! Y Y ! E Y Y  . . ./ / /  . . .Y Q ! ] ! ! E E Q ! E E Q ! E E ! ! Q E E E E X X X ] ] ! Y ! ! Q Y c b E ",
"E Y Y Y n b I X X X ] ! E Y ! E E Y Q E Y  . . .! Y E ! ! ] [ ] ] ! ! ] E Y Y E ! Q E ! E Y Y E ! ] X X X ] ] Y E ! ] Q Y Y E Q ",
"[ [ ] ! ] ] ] X X X [ ] ! Q ! Q E E ! Q E  . . .E E ! ! ! ! ! ! Q E E ! Q E E ! ! E ! ! ! ] ! ! ! Q Q E Y ! ] E Y E E T E Y Y Y ",
"[ [ [ [ [ [ [ [ ! ! ! E E T ! W E E E E Q  . . .E Y Y n n E Y Y E ! E E Y E ! ] ] [ [ [ ! ! Y n c c n Y E E E T E Q ! T Y Y Y Y ",
"[ [ [ ! ] ] ! Y Y Y Q ! E E E E b n Y E E Y E n Y Y Y Y E Q E Y E Y c I Y ! ! E Q E E ! I x x n Y ! E E E E Y Y I Y E Y Y I b n ",
"! E ! E Y E Q E E E E Q Q E E I Y Y I I b b E ! Y Y Y Y E Q E E ! ! ] ] ! ! E E Y Y I I Y Y E ! E E Q ! ! ! Q Y Y E Q ! ! ! ! ! ",
"b b Y Y E ! Y E Y Y Y E E E Y Q Y Y Y b n n E n I E Y E Y Y Y Q ! ! E E E ! ! ! ! ! ! ! ] ] ! ! ! ] [ [ [ [ [ E z b n ! [ [ [ [ ",
"Y Y E ! Q ! ! E ! ! ! ! Q ! ! E E Y Y Y Y E ! ! ! ! ! E ! Q Q ! E E E Q E [ [ [ [ [ [ [ [ [ [ [ [ [ [ [ [ [ [ Q c x c Q [ [ [ [ "
};
