/* XPM */
static char *_04f8e8f48224cafb32e506575e6025eUQRIn0U3vuVMdlWJ[] = {
/* columns rows colors chars-per-pixel */
"64 64 72 1 ",
"  c black",
". c #015726",
"X c #0E5A27",
"o c #346E2A",
"O c #39722B",
"+ c #3E762C",
"@ c #497F2E",
"# c #7B7063",
"$ c #F00000",
"% c #E63B3B",
"& c #4B822E",
"* c #4C822F",
"= c #4E842F",
"- c #50862F",
"; c #528730",
": c #558B31",
"> c #578C31",
", c #5A8F32",
"< c #5E9332",
"1 c #5F9533",
"2 c #629733",
"3 c #639933",
"4 c #669B34",
"5 c #679D35",
"6 c #689E35",
"7 c #6BA036",
"8 c #6DA336",
"9 c #6FA537",
"0 c #71A737",
"q c #71A837",
"w c #71A738",
"e c #72A838",
"r c #74AB38",
"t c #77AE39",
"y c #78AE39",
"u c #79B139",
"i c #7CB33A",
"p c #7BB43B",
"a c #7CB43B",
"s c #7FB73C",
"d c #7FB83B",
"f c #7FB83C",
"g c #B0B111",
"h c #82BA3C",
"j c #83BC3C",
"k c #85BE3D",
"l c #F08500",
"z c #87C13E",
"x c #88C13E",
"c c #8BC53F",
"v c #8CC53F",
"b c #FFEA13",
"n c #8CC640",
"m c #8EC840",
"M c #D8D743",
"N c #FFFF6D",
"B c #9C1ACA",
"V c #CF14D4",
"C c #D825DB",
"Z c #FD53FF",
"A c #34B7FB",
"S c #B6A891",
"D c #C6B79E",
"F c #D9C8AD",
"G c #DFCEB2",
"H c #E1CAB7",
"J c #E3C4BE",
"K c #E5BDC5",
"L c #E8B6CC",
"P c #E7B9C9",
"I c #FEC6F1",
"U c white",
/* pixels */
"mmmmmmmmmmmmmmmmmmmmmmmmmmmmmmmmmmmxsssqrrtmmmmmmmmmmmmmmmmsu98a",
"mmmmmmmmmmmmmmmmmmmmccccxxmmmmmss99eiy9ukxcmmmmmmxusmmmhjxxxxvnn",
"mmmmma80uuhkzkccnvzxxxzhccnvkkhxcvkxxhhkcvkkckukt8tkkkcnnnckxcxv",
"tttuhuuhkxxzzcccccccvnznmncxvnnchtkhhxcxnxkznxxxxzxxxckzxxxccmmm",
"2traskxxcxkhxvvcxzvcnvvnvcxvxxhxxmmmkzkhzkkvvkvnccakcxxzzkmmmmmm",
"sxmmmmmmmmcvvxazzxxnnxcxkaahkxxaikxkkkkzkkxcxznnchacmmhhsshkzmmm",
"hkjmmmmmmmhs50asammmmhahkzkkhckhu8ehkkh9nvmmmvnmmxhxmmcvnnxkcmmm",
"mxcm...mm...mzaasakxmcvnnhknnxkncmmhaxhcnvxmncnnznncnncvnxxmmmmm",
"shmm...mm...mmmmmmcvmmnnvnmnxhammmmmmhajckhmnxvxkvcxxxxxxkkhhumm",
"ajcm...mm...mzhaxhncckhkvchcm m m m mmmsxmcvnkzczhkammmmmmmtttss",
"kkkmmaa...mmm0rknvmhyhxxhism A A A A mmmkihccxxckm...mmm...xxm9m",
"xkmcsu;...mmmkcnvcczhnnxkmmm lllllll mmmkaxxcccmmm...mmm...mmssm",
"xcku>1@...mmhathmmkccnxxkmmm $l$l$l$  msxaxvvxmmvc...mmm...mxtmx",
"ccttxm*:...mmmthmcxxhacmmmm  lllllll  mxnzkvnxvukak+a...mmmu17<t",
"mnhmmmm0...mmhxhkkshxmmmm  gg       gg hckknnkvhhmm2:...mmms2uxm",
"vvmxujmz...mtcxxhcmmmmm  ggggNNggggggg mxkaxvxvmurmz-...mmmtcmmm",
"xvzazmmmmmmcxcnmmmmmm  gMNMNNNMNNNNNMMg tuknmxmnx94m5...mmmtkccv",
"skxjmmmmceyccamm     gMNNNNNMNNNNNNNMMMg mmmnxvxvammm...mmmmhaat",
"axcvxmve0t9vmmmm ggggMNNNMMgggggggMMMMMg mmmmvvkzktmm...mmmmka0k",
"mmxxzhxhtxzmmmmm ggMNNNNMgggg   ggg gggg mmmmnnaxakxxxxxak3hr1hh",
"uxxzxxvzhcuvmmmmm gMNNMMggg   G    G g  mmxhkccauhtttuhvkucxixvh",
"ezccxxvnnzknmmmm ggNNNMg   GGGGGGGGG  mxu9is8hkkhxhkcnmnnmkhnvka",
"mmmmvvmmmxnmmmcam gNNNMg I GGG#GGGG#G mt7zvkzkxkhzcnnkathxvnxaiy",
"mmxxjcvxhcmmvukhm NMNNMg ZGGGG#GGGG#G mmhhshxhkchxukt4xkvvckehcm",
"xsckhcxhccmmck5cm gMNNMM BGHLP#GGGG#G mmhvvmchkxkatktxmxzkxxmUUU",
"ekutnmxukchvmcemm gMMNNMg  KLJGGGGGGG mmkztnkjxxxckhxmmktmmmmUUU",
"ercmmmhjxxivmhxm ggMMNNNNNg JJGSGGFDG mmshcnchxacczvkncuusmmmUUU",
"UUUmmmkhvkmcmkn gggMMNNNMNMg GGG###FGG mmktzexakncxtmmxmssUUUbbb",
"UUUmmmufnmnnmkmm gg gNNNMMMM GGGGGGGG mmhsekkmnnna9smmcmzsUUUbbb",
"UUUmzhsxnmxnvkmmm  MMNNMM     GGGGGG   mmmmvncvxkvmmcmn0xmUUUbbb",
"mmxytaxkkmzncmmmmm MNNMM ZZCCVVVVVVVVVV ms7xnxkxcz74xnmaxmmmmUUU",
"mahykaxvmmxxzmczmm MNMM ZZZCCZZZZZZZZVV mshnnczknaqknmmaxhmmmUUU",
"mhvxkuxvnmvukcxum MMMMM ZZZZZZZZZZZZZZZ mmmmmmmxvd7kvmndjzmmmUUU",
"mmxjcczxxmvhzxcam MMMMM ZZZZZZZZZZZV ZZ mmmmmmxcxasmmmc6kmmmmmmm",
"mm7mmcnzmmvhcxnjc MMMMM ZZZZZZZZZZZV ZZ mmxxuxhhxzmmvvca0kmmmmmm",
"muavnzcavnjtkczkn ggMMMg  ZZZZZZZZZZ VV mmahakhkxxhahkvsjmmmmxxm",
"akvxckckvhkfhcatcm gMMMgg UUU VZZZZZ  V mmmkhzrkhzkszxvtuutktutm",
"ckmcxcavhhmzvcaahmm gMMgg UUU VZZZV ZZ mmmvjhhhkxxhsskku5yqhczss",
"vkhvcxkc9mmkvukhkmm ggMgg UUU VVVVV Z U mmfzahxxhuurkhxahxaxvz6s",
"ypccnzctxmchxt6axm gggggg UUU VVVVV  UU mmmvhxvhyzkvmnkkcrwhnvmm",
"8hcvcxakmmmac0uhxm gggggg UUUU VVVV UUU mkjkuvvxkxcxxxvhxkxmnnhm",
"hkmxvachmmmmmmmmmmm   ggg UUUUU  V UUU mmhhhaxvxxknhvcxkxaxjxxkh",
"xvnncxeX..mmm...mccmmm    UUUUUUU UUUU mmmmmmmcjxuhucaxaauzhjcks",
"ynvnm6e...mmm...mvxmmmm CC  UUUUU UUUU mmmmmmckukhhxxhnkvcchxva6",
"mmxcmsm...mmm...mckmmmm CCCC   UU UUU mmmmmmnnxxhxvvxxccvnxkxxak",
"mckxmmvh,8...mmmmzkmzz CCCCCCCC  UUU   mmchkccxvxhhy757tsshhvvhm",
"mcxsmmnu2o...mmmmucha0 CCCZZZCCCC    CC jaekcvzkksxmmmmmmmmmmmyx",
"mmxvkvm0t=...mmmmckca CCZZZ%ZZZZZZZZZZC hxzxcxxxmmmm...mmm...myx",
"mmhknvk15...zakmxknkh ZZZZ%%ZZZZ%ZZZ%ZZ mmmmmmx0mmmm...mmm...mym",
"mmvzcvu1m...jnckxkck ZZZZZ%%ZZZZ%ZZZ%ZZ mmmmmnhmmmmm...mmm...axm",
"mzcmccasa...vnjvjamm ZZZZZ%ZZZZZ%ZZZ%ZZZ mmmvvxccmmm7tm...mxtmmm",
"0kmxknv9smhhcvmmhmm ZZZZZZ%ZZZZZ%ZZZZ%ZZ mmmxnhhxmmmz&O...mtxmmm",
"2mmcmmcjxcnznmmmmm ZZZVVZ%%ZZZZZ%ZZZZ%VZ maexvxuvmmmx64..X7smmmm",
"shkxkvczccnmmmmmmm ZZZVVV%ZZZVZZ%ZZVZ%VV mhanmxhkmmmmm...9mmmmfa",
"mmmmmcxsnnmmmmmmm ZZZVVVV%ZZVVVV%ZVVV%VV mmmmmxcmmmmmm...6tezkkx",
"mmmmmknzmmammmmmm ZVVVVV%%VVVVVV%VVVVV%V mmmmmxchknxkx...exmmvkm",
"mmmmcknmakkmmmch VVVVVVV%VVVVVVV%VVVVV%VV mmmmmvnhknkcaammmmmhhm",
"mmmvkmxhuhnxhxya VVVVVVV%VVVVVVV%%VVVV%VV mmxzkazxknmmmmmmmvczsm",
"mmkhhxzczkcckcc                           mmuzzazkxnnxcchkhvxkzm",
"mmmckznnkknvmmmmmmmmmzzcxxmmmmmmmmmmmmmmmmmmmvxahkcvzkxke8xxchau",
"mmmmmnnxvncxxkhmcxcvvnnvxvcxxheue0eummmmmmmmmmmmmmvvhhxtuxnvs1uz",
"mmmxmcckjkxzckchhkkxhxxzxkkxccvcxxcvncccxzcckhhvnnvvujxcvnvhzmmm",
"mchkxhakjmmxnxxxjhzxvzcmmmmmmccnnvcxccxxxccnccvvvckh8vmnmmmmmmmm",
"xhkmmmkcmmmmmxvcxcmmmmmmmmmmmmmmmmkkxkxzfhkxxxxcmmmmmmmmmmmmmmmm"
};
