/* XPM */
static char *_d399c3fd01e4c0ea37ad6ceb9ece7d5QcH68ZrYjzsJLAsH[] = {
/* columns rows colors chars-per-pixel */
"64 64 46 1 ",
"  c #010101",
". c #001806",
"X c #002B0F",
"o c #393A3B",
"O c #483927",
"+ c #015726",
"@ c #2D6929",
"# c #4A6A1E",
"$ c #477D2E",
"% c #293B43",
"& c #496A78",
"* c #6C6C6D",
"= c #7B7063",
"- c #4A812E",
"; c #558B30",
": c #598E31",
"> c #629733",
", c #639934",
"< c #649A34",
"1 c #679D34",
"2 c #6DA336",
"3 c #6FA537",
"4 c #70A637",
"5 c #70A738",
"6 c #73AA38",
"7 c #74AB39",
"8 c #76AC39",
"9 c #78AF3A",
"0 c #78B03A",
"q c #7CB33A",
"w c #7CB43A",
"e c #7FB73C",
"r c #81B93C",
"t c #83BC3D",
"y c #86BF3D",
"u c #87C03E",
"i c #88C23E",
"p c #8BC43F",
"a c #8CC63F",
"s c #FFEA13",
"d c #8CC640",
"f c #8EC840",
"g c #8F8F91",
"h c #B3B2BC",
"j c #DFCEB2",
"k c white",
/* pixels */
"fffffffffffffffffffffffffffffffffffffffffffffr<fffffffffffffffff",
"fff            fffff                        ffirrfffffff+++fffff",
"ff              fff                          fffyf+++fff+++fffff",
"f                f                            ffff+++fff+++fffid",
"f   %%%%%%%%        gggggooohhhhooohhhhhooo    fff++++++ffw>00yi",
"f   &&&&&&&%        gggggooohhhhooohhhhhoooo   1wfw88+++ff20yrff",
"f   &%&&&&%%        gggggooohhhhooohhhhhoooo   f0wf1$+++ffw;0fff",
"f   %%&%%%%%   ggggggggggooohhhhooohhhhhoooo   ff9u0-+++ff12rfff",
"f   %&%&&&&&   gggghhhgggooohhhhooohhghhoooo   ffwurr+++ffpeufff",
"f   &%%&&&%%   ggggggggggooohghhooohhghhoooo   ff9fff+++ffr,riip",
"f   %%&&%&&&   ggggggggggooohgghooohhghhoooo   ff8tffffi4fffiywr",
"f   %%&&&&%%   gggggggghgooohghhooohhhhhoooo   ffdiff609q3rf10ui",
"f   %%%%%           ggghgggghghhhhhgghhhhhhh   fffff . ffprfiiuy",
"f                   gggggggggghhhhgghhhhghhh   ffff     ffffr8yf",
"f                   ggggggghgghhggghhhhhhggh   fff   hh  fffuwwf",
"f                   gggggggggghhhhghhhhhhhhh   ff   gghh  fffiyf",
"f     fff   gggggggg                           f   ggggh   fffri",
"     ffff   gggggggg                           f   gg*ghh  fffri",
"    fffff   gghggggg                           f   gg*ghh  ffurf",
"    fppff   gghgghggjjjjjjjjjjjjjjjjjjjj   fffff   gg*ggh  fuwrf",
"fffey0yff   gghgghggjjjjjjjjjjjjjjjjjjjj   fffff   gg*ggh  fffry",
"ffrur0eif   ghhgghggjjjjjjjjjjjjjjjjjjjj   ff84f   gg*ggh  ff87y",
"ffffrqwuf   ghggghggjjjjjjjjjjjjjjjjjjjj   ffaif   gg*ggh  fffff",
"fffy6ryrf   ghgghhggjjjjj===jjjjj===jjjj   ffruf   gg*ggh  fffff",
"ff0iupdff   hggghhggjjjjj===jjjjj===jjjj   fu<ff   gg*ggh  ffkkk",
"ff6:50iff   gggghhggjjjjj===jjjjj===jjjj   fyyaf   gg*ghh  ffkkk",
"kkkf4w09f   gggghgggjjjjj===jjjjj===jjjj   ff8rf   gg*ghh  ffkkk",
"kkkfpwiaf   ggggggggjjjjj===jjjjj===jjjj   ffwwf   gg*ghh  kksss",
"kkkf68dff   ghgggghgjjjjj===jjjjj===jjjj   ffr8f   gg*ghh  kksss",
"ffffyrfff   ghggghhgjjjjjjjjjjjjjjjjjjjj   ff8if   gg*ghh  kksss",
"ff0wpiidr   ghggghggjjjjjjjjjjjjjjjjjjjj   fa8ff   gg*ggh  ffkkk",
"frruppyyy   ghggghggjjjjjjjjjjjjjjjjjjjj   ff98f   gg*ggh  ffkkk",
"fpiyyperf   ggggghggjjjjj==jjjjj==jjjjjj   ffy3f   gg*ghh  ffkkk",
"fffypy0yf   ggggggggjjjjjj=======jjjjjjj   fwrwf   gg*ghh  fffff",
"ff0yiyiurrff   gggggjjjjjjj=====jjjjjjjj   fp0pf   gg*ghh  fffff",
"ffiyypiii0ff   gggggjjjjjjjjjjjjjjjjjjjj   fu1yp   gg*ghh  fffff",
"ruy840ryffff   gggggjjjjjjjjjjjjjjjjjjjj   ff4wp   gg*ggh  fffff",
"rrwX.                   ggggggggggggg              gg*ggh   ffff",
"0ff                     ggggggggggggg              ggggg     fff",
"f                       hhhhhhhhhhggg              ggggg      ff",
"f   ggggggggg   gggggghhhhhhhhhhhhhgghhh        %%%%%%%%%%%%    ",
"f   gghhghggg   gggggghhhhhhhhhhhhhghhhh        %%%%%%%%%%%%    ",
"f   ggggghghg   gggggghhhhhhhhhhhhhghhhh        %%%%%%%%%%%%    ",
"ffff   gghghg   gghgggggggghhhhhhhghhhhh        %%%%%%%%%%%%   f",
"ffff   gghghg   gghhggggggghhhhhhhghhhhh      %%%   jjjj      ff",
"ffff   ghghhg   ggghgghggggghhhhhhghhhhh      &&%   jjj=     fff",
"ffff   ggghgg   ggghggghhggggghhhh   gggggg   &&%   jjjj    ff6p",
"ffff   gggggg   ggggggggghhggggggg   gggggg   &&%   jjj=    furp",
"ffff   gggggg   gggggggggggggggggg   ggghgg   %%%   jjjj    fff0",
"f                                 ggg            %%%%%%%    ffff",
"f                                 ggg            %%&&&&%    fffw",
"f                                 ggg            %%&&%%%   ffp0u",
"f   %%%%%%      ggghhggggggggggggghggghgggg    f         ffiryif",
"f   %&&&%%      gghhhhghhhhgggggghgghhggggg   fff       fffrifff",
"f   %&&&%%      ghhhhgghhghggggghhhhhgggggg   uqr#      fpyytiff",
"f   %&&&%%      gggggggggggggggggghhhggg     fyyr0+++f170rriyyu7",
"f   %&%%%%      gggggggggggggggggggggggg    ffrari+++wryyryiyarw",
"f   %&&&%%      ggggggggggg      ggggggg   ffwyf66+++28uyaaypawf",
"f   %%&%%%      OOOOOOOOOOO      OOOOOOO    fwry0f+++epiuuwriirf",
"f   %%%%%%      OOOOOOOOOOO      OOOOOOO     ffr8f++@i8upuurpyrf",
"f   %%%%%%      OOOOOOOOOOO      OOOOOOOOOO   ff6yffiaaaiyuifrqi",
"ffff      ffff   OOOOOOOOOO      OOOOOOOOOO   fiuiiididaiadfdiyp",
"ffff      ffff   OOOOOOOOOO      OOOOOOOOOO   fyirriadpripddpdaf",
"ffff      fffffffffffffffffffffffffffffffffffffrr089rwypiuiiwpff"
};
